Coordinates
version=1
nRows=16
nColumns=38
inDegrees=no

Units are S.I. units (second, meters, Newtons, ...)
If the header above contains a line with 'inDegrees', this indicates whether rotational values are in degrees (yes) or radians (no).

endheader
time	pelvis_tilt	pelvis_list	pelvis_rotation	pelvis_tx	pelvis_ty	pelvis_tz	hip_flexion_r	hip_adduction_r	hip_rotation_r	knee_angle_r	ankle_angle_r	subtalar_angle_r	mtp_angle_r	hip_flexion_l	hip_adduction_l	hip_rotation_l	knee_angle_l	ankle_angle_l	subtalar_angle_l	mtp_angle_l	lumbar_extension	lumbar_bending	lumbar_rotation	arm_flex_r	arm_add_r	arm_rot_r	elbow_flex_r	pro_sup_r	wrist_flex_r	wrist_dev_r	arm_flex_l	arm_add_l	arm_rot_l	elbow_flex_l	pro_sup_l	wrist_flex_l	wrist_dev_l
0	-0.119647	-0.0193804	-3.10987	-0.322874	0.953504	0.0504457	0.333186	-0.0479156	-0.134064	0.238061	-0.0651212	0	0	-0.328745	0.0463611	-0.0104183	0.215117	0.374726	0	0	-0.32498	0.100483	-0.342115	0.201769	-0.303558	1.5708	0.313799	0.0620716	0	0	0.517809	-0.555047	0.984114	0.767652	0.525822	0	0
0.00999071	-0.120023	-0.0156624	-3.10246	-0.325003	0.953293	0.0490216	0.331479	-0.0453751	-0.141713	0.25657	-0.0665854	0	0	-0.325401	0.0349939	-0.0106984	0.241465	0.367879	0	0	-0.320479	0.106981	-0.348359	0.209199	-0.299181	1.5708	0.314774	0.0646481	0	0	0.505174	-0.545937	1.00532	0.752397	0.510625	0	0
0.0199814	-0.120327	-0.0119394	-3.095	-0.327136	0.953083	0.0475959	0.329814	-0.0428357	-0.149428	0.275076	-0.0677556	0	0	-0.321576	0.0234766	-0.0115764	0.268531	0.360976	0	0	-0.31588	0.113475	-0.354609	0.216633	-0.294797	1.5708	0.315776	0.0671869	0	0	0.492507	-0.53676	1.02679	0.737042	0.495067	0	0
0.0299721	-0.120522	-0.00824275	-3.08752	-0.329277	0.952887	0.0461606	0.328173	-0.0403067	-0.157231	0.293556	-0.0681743	0	0	-0.31692	0.0117513	-0.0133197	0.296794	0.353594	0	0	-0.311127	0.119901	-0.360807	0.224079	-0.290384	1.5708	0.316839	0.0696899	0	0	0.479801	-0.527415	1.04899	0.721431	0.478533	0	0
0.0399629	-0.120614	-0.00464594	-3.08006	-0.331426	0.952727	0.0447028	0.326468	-0.0378053	-0.165059	0.31194	-0.06733	0	0	-0.311256	-0.000128122	-0.0158936	0.326447	0.345029	0	0	-0.306241	0.126129	-0.366821	0.231555	-0.285915	1.5708	0.317993	0.0721676	0	0	0.46708	-0.517796	1.07246	0.705406	0.460298	0	0
0.0499536	-0.120659	-0.00126387	-3.07274	-0.333579	0.952635	0.0432068	0.324528	-0.0353562	-0.172757	0.330082	-0.0647711	0	0	-0.304613	-0.0119922	-0.0189903	0.357362	0.334395	0	0	-0.301333	0.13198	-0.372448	0.239088	-0.281364	1.5708	0.319268	0.0746176	0	0	0.454404	-0.507803	1.09774	0.688843	0.439641	0	0
0.0599443	-0.120743	0.00178991	-3.06568	-0.335721	0.952641	0.0416578	0.322126	-0.032964	-0.180128	0.347741	-0.060206	0	0	-0.29703	-0.0236568	-0.0222961	0.389419	0.320843	0	0	-0.296585	0.137276	-0.377425	0.246716	-0.276723	1.5708	0.320701	0.0770127	0	0	0.44187	-0.497355	1.12525	0.671682	0.415979	0	0
0.069935	-0.120939	0.0044527	-3.059	-0.337833	0.952771	0.0400443	0.319031	-0.0305849	-0.186992	0.364595	-0.0535643	0	0	-0.288411	-0.0350272	-0.0256819	0.422721	0.303736	0	0	-0.2922	0.141907	-0.381441	0.254473	-0.272022	1.5708	0.322344	0.0793146	0	0	0.429603	-0.486383	1.15529	0.653946	0.388969	0	0
0.0799257	-0.121292	0.00671616	-3.05278	-0.339888	0.953038	0.0383596	0.315043	-0.0281442	-0.193246	0.380273	-0.0449932	0	0	-0.278535	-0.0461019	-0.029166	0.457538	0.28272	0	0	-0.288373	0.145842	-0.384151	0.262375	-0.267335	1.5708	0.324265	0.081496	0	0	0.417764	-0.474828	1.18796	0.635708	0.358589	0	0
0.0899164	-0.121814	0.00860246	-3.04706	-0.341859	0.95345	0.0366024	0.310009	-0.025571	-0.198866	0.394401	-0.0348032	0	0	-0.267128	-0.0569239	-0.0328037	0.494184	0.257734	0	0	-0.285283	0.149098	-0.38516	0.270393	-0.262784	1.5708	0.326542	0.0835583	0	0	0.4066	-0.462617	1.22338	0.61705	0.324973	0	0
0.0999071	-0.122503	0.0101474	-3.04184	-0.343718	0.954007	0.034776	0.303819	-0.0228105	-0.20389	0.406643	-0.0234069	0	0	-0.253937	-0.067539	-0.0366123	0.532914	0.229019	0	0	-0.283081	0.151723	-0.384135	0.278499	-0.258502	1.5708	0.32926	0.0855213	0	0	0.396317	-0.449726	1.26141	0.598107	0.288565	0	0
0.109898	-0.12335	0.0113871	-3.03709	-0.345437	0.954704	0.0328887	0.296405	-0.0198332	-0.208393	0.416737	-0.011242	0	0	-0.238779	-0.0779668	-0.0405309	0.573857	0.197089	0	0	-0.281879	0.153772	-0.38086	0.286691	-0.254615	1.5708	0.332488	0.0874612	0	0	0.387042	-0.436198	1.30168	0.579058	0.250045	0	0
0.119889	-0.124359	0.0123497	-3.03276	-0.346995	0.955533	0.0309534	0.287732	-0.0166375	-0.212464	0.42452	0.00127544	0	0	-0.221584	-0.0881878	-0.0444211	0.61698	0.162701	0	0	-0.281745	0.155305	-0.375329	0.295031	-0.251207	1.5708	0.336268	0.0895269	0	0	0.378712	-0.422186	1.34332	0.560168	0.210501	0	0
0.129879	-0.125553	0.0130554	-3.02877	-0.348371	0.956486	0.0289884	0.277788	-0.013246	-0.216189	0.429937	0.0137855	0	0	-0.202406	-0.0981449	-0.0481051	0.662072	0.126786	0	0	-0.282685	0.156382	-0.36782	0.303683	-0.248291	1.5708	0.340587	0.0919952	0	0	0.37102	-0.407973	1.38497	0.541781	0.171292	0	0
0.13987	-0.127034	0.0135803	-3.02508	-0.349552	0.957548	0.0270261	0.266518	-0.00963184	-0.219629	0.43303	0.0260044	0	0	-0.181496	-0.107808	-0.0514607	0.708773	0.0904121	0	0	-0.284705	0.157132	-0.358833	0.312945	-0.245872	1.5708	0.345464	0.0952541	0	0	0.363445	-0.39394	1.4248	0.524343	0.133955	0	0
0.149861	-0.128883	0.0139704	-3.02163	-0.350532	0.958707	0.0250964	0.25393	-0.00580161	-0.222798	0.433926	0.0377221	0	0	-0.15917	-0.117105	-0.0544031	0.756565	0.0546477	0	0	-0.287804	0.157657	-0.348746	0.323018	-0.243987	1.5708	0.350909	0.0996284	0	0	0.355609	-0.3804	1.46125	0.508236	0.0999064	0	0
